<?xml version="1.0" encoding="UTF-8"?>
<svg width="28px" height="4px" viewBox="0 0 28 4" version="1.1" xmlns="http://www.w3.org/2000/svg" xmlns:xlink="http://www.w3.org/1999/xlink">
    <!-- Generator: Sketch 53.2 (72643) - https://sketchapp.com -->
    <title></title>
    <desc>Created with Sketch.</desc>
    <g id="Page-1" stroke="none" stroke-width="1" fill="none" fill-rule="evenodd">
        <g id="Photo-Work" transform="translate(-2159.000000, -2508.000000)" fill="#000000" fill-rule="nonzero">
            <path d="M2186.24994,2511.75002 L2159.75,2511.75002 C2159.54167,2511.75002 2159.36458,2511.67711 2159.21875,2511.53127 C2159.07292,2511.38544 2159,2511.20836 2159,2511.00003 L2159,2509.00003 C2159,2508.7917 2159.07292,2508.61461 2159.21875,2508.46878 C2159.36458,2508.32295 2159.54167,2508.25003 2159.75,2508.25003 L2186.24994,2508.25003 C2186.45827,2508.25003 2186.63535,2508.32295 2186.78118,2508.46878 C2186.92702,2508.61461 2186.99993,2508.7917 2186.99993,2509.00003 L2186.99993,2511.00003 C2186.99993,2511.20836 2186.92702,2511.38544 2186.78118,2511.53127 C2186.63535,2511.67711 2186.45827,2511.75002 2186.24994,2511.75002 Z" id=""></path>
        </g>
    </g>
</svg>