<?xml version="1.0" encoding="UTF-8"?>
<svg width="29px" height="28px" viewBox="0 0 29 28" version="1.1" xmlns="http://www.w3.org/2000/svg" xmlns:xlink="http://www.w3.org/1999/xlink">
    <!-- Generator: Sketch 53.2 (72643) - https://sketchapp.com -->
    <title></title>
    <desc>Created with Sketch.</desc>
    <g id="Page-1" stroke="none" stroke-width="1" fill="none" fill-rule="evenodd">
        <g id="Photo-Work" transform="translate(-2067.000000, -2488.000000)" fill="#000000" fill-rule="nonzero">
            <path d="M2094.74994,2500.25003 C2094.95827,2500.25003 2095.13535,2500.32295 2095.28118,2500.46878 C2095.42702,2500.61461 2095.49993,2500.7917 2095.49993,2501.00003 L2095.49993,2503.00003 C2095.49993,2503.20836 2095.42702,2503.38544 2095.28118,2503.53127 C2095.13535,2503.67711 2094.95827,2503.75002 2094.74994,2503.75002 L2083.24996,2503.75002 L2083.24996,2515.25 C2083.24996,2515.45833 2083.17705,2515.63541 2083.03121,2515.78125 C2082.88538,2515.92708 2082.7083,2516 2082.49996,2516 L2080.49997,2516 C2080.29164,2516 2080.11455,2515.92708 2079.96872,2515.78125 C2079.82289,2515.63541 2079.74997,2515.45833 2079.74997,2515.25 L2079.74997,2503.75002 L2068.25,2503.75002 C2068.04167,2503.75002 2067.86458,2503.67711 2067.71875,2503.53127 C2067.57292,2503.38544 2067.5,2503.20836 2067.5,2503.00003 L2067.5,2501.00003 C2067.5,2500.7917 2067.57292,2500.61461 2067.71875,2500.46878 C2067.86458,2500.32295 2068.04167,2500.25003 2068.25,2500.25003 L2079.74997,2500.25003 L2079.74997,2488.75006 C2079.74997,2488.54173 2079.82289,2488.36464 2079.96872,2488.21881 C2080.11455,2488.07298 2080.29164,2488.00006 2080.49997,2488.00006 L2082.49996,2488.00006 C2082.7083,2488.00006 2082.88538,2488.07298 2083.03121,2488.21881 C2083.17705,2488.36464 2083.24996,2488.54173 2083.24996,2488.75006 L2083.24996,2500.25003 L2094.74994,2500.25003 Z" id=""></path>
        </g>
    </g>
</svg>